<?xml version="1.0" ?><svg style="enable-background:new 0 0 678.836 685.309;" version="1.1" viewBox="0 0 678.836 685.309" xml:space="preserve" xmlns="http://www.w3.org/2000/svg" xmlns:xlink="http://www.w3.org/1999/xlink"><g id="_x34_-Boot"><g><path d="M491.003,351.595H370.596V171.432c0-11.827-9.589-21.416-21.416-21.416H62.277    c-11.827,0-21.416,9.589-21.416,21.416v443.706c0,11.827,9.589,21.416,21.416,21.416H657.42c11.827,0,21.416-9.589,21.416-21.416    v-75.709C678.836,435.858,594.574,351.595,491.003,351.595z" style="fill:#FE9700;"/><g><path d="M491.003,351.595h-56.217c103.571,0,187.834,84.262,187.834,187.834v75.709     c0,11.827-9.589,21.416-21.416,21.416h56.217c11.827,0,21.416-9.589,21.416-21.416v-75.709     C678.836,435.858,594.574,351.595,491.003,351.595z" style="fill:#F47C00;"/><path d="M314.379,171.432v180.163h56.217V171.432c0-11.827-9.589-21.416-21.416-21.416h-56.217     C304.79,150.016,314.379,159.605,314.379,171.432z" style="fill:#F47C00;"/></g><path d="M40.861,566.382v97.511c0,11.827,9.589,21.416,21.416,21.416h153.326    c5.678,0,11.126-2.253,15.142-6.269l17.866-17.866l17.861,17.861c4.016,4.015,9.464,6.274,15.142,6.274H657.42    c11.827,0,21.416-9.589,21.416-21.416v-97.511H40.861z" style="fill:#795548;"/><g><path d="M623.513,566.382v97.511c0,11.827-9.589,21.416-21.416,21.416h55.323     c11.827,0,21.416-9.589,21.416-21.416v-97.511H623.513z" style="fill:#5D4037;"/></g><g><path d="M349.18,242.145h-45.007c-11.827,0-21.416-9.588-21.416-21.416s9.589-21.416,21.416-21.416h45.007     c11.827,0,21.416,9.588,21.416,21.416S361.007,242.145,349.18,242.145z" style="fill:#795548;"/></g><g><path d="M349.18,296.533h-45.007c-11.827,0-21.416-9.588-21.416-21.416s9.589-21.416,21.416-21.416h45.007     c11.827,0,21.416,9.588,21.416,21.416S361.007,296.533,349.18,296.533z" style="fill:#795548;"/></g><g><path d="M371.746,242.145h-45.007c-11.827,0-21.416-9.588-21.416-21.416s9.589-21.416,21.416-21.416     h45.007c11.827,0,21.416,9.588,21.416,21.416S383.573,242.145,371.746,242.145z" style="fill:#5D4037;"/></g><g><path d="M371.746,296.533h-45.007c-11.827,0-21.416-9.588-21.416-21.416s9.589-21.416,21.416-21.416     h45.007c11.827,0,21.416,9.588,21.416,21.416S383.573,296.533,371.746,296.533z" style="fill:#5D4037;"/></g><g><path d="M442.945,442.907c-11.827,0-21.416-9.588-21.416-21.416v-45.003     c0-11.828,9.589-21.416,21.416-21.416s21.416,9.588,21.416,21.416v45.003C464.361,433.319,454.772,442.907,442.945,442.907z" style="fill:#795548;"/></g><g><path d="M502.095,442.907c-11.827,0-21.416-9.588-21.416-21.416v-45.003     c0-11.828,9.589-21.416,21.416-21.416c11.827,0,21.416,9.588,21.416,21.416v45.003     C523.511,433.319,513.922,442.907,502.095,442.907z" style="fill:#795548;"/></g><g><path d="M442.945,416.137c-11.827,0-21.416-9.588-21.416-21.416v-45.003     c0-11.828,9.589-21.416,21.416-21.416s21.416,9.588,21.416,21.416v45.003C464.361,406.549,454.772,416.137,442.945,416.137z" style="fill:#5D4037;"/></g><g><path d="M502.095,416.137c-11.827,0-21.416-9.588-21.416-21.416v-45.003     c0-11.828,9.589-21.416,21.416-21.416c11.827,0,21.416,9.588,21.416,21.416v45.003     C523.511,406.549,513.922,416.137,502.095,416.137z" style="fill:#5D4037;"/></g><g><path d="M347.251,393.189c-5.479,0-10.959-2.09-15.142-6.272c-8.366-8.363-8.366-21.923,0-30.287     l31.821-31.823c8.355-8.363,21.918-8.364,30.283-0.001c8.366,8.363,8.366,21.923,0,30.287l-31.821,31.823     C358.216,391.098,352.731,393.189,347.251,393.189z" style="fill:#795548;"/></g><g><path d="M362.005,378.436c-5.479,0-10.959-2.09-15.142-6.272c-8.366-8.363-8.366-21.923,0-30.287     l31.821-31.823c8.355-8.363,21.918-8.364,30.283-0.001c8.366,8.363,8.366,21.923,0,30.287l-31.821,31.823     C372.969,376.344,367.485,378.436,362.005,378.436z" style="fill:#5D4037;"/></g><path d="M394.573,0H21.416C9.589,0,0,9.589,0,21.416v150.016c0,11.827,9.589,21.416,21.416,21.416h373.158    c11.827,0,21.416-9.589,21.416-21.416V21.416C415.989,9.589,406.4,0,394.573,0z" style="fill:#FE5722;"/><path d="M394.573,0h-69.602c11.827,0,21.416,9.589,21.416,21.416v150.016    c0,11.827-9.589,21.416-21.416,21.416h69.602c11.827,0,21.416-9.589,21.416-21.416V21.416C415.989,9.589,406.4,0,394.573,0z" style="fill:#F43D0C;"/></g></g><g id="Layer_1"/></svg>